<svg id="레이어_1" data-name="레이어 1" xmlns="http://www.w3.org/2000/svg" viewBox="0 0 50 50"><defs><style>.cls-1{fill:#040000;}.cls-2{fill:#0b0c0c;}</style></defs><title>대지 1</title><path d="M18.2,45.92H31.28a2.07,2.07,0,0,0,.8-.15c1.1-.4.93-1.24.93-1.24h0a1.88,1.88,0,0,0-.36-1.17l-.89-1.27a3.38,3.38,0,0,0-1.59-1.46,2.67,2.67,0,0,0-.3-2.21h0L28,34.91c-1.06-2-2-3.42-4.45-3.56A3.2,3.2,0,0,1,21,30.3c-.06-.08-.18-.19-.29-.31a6.56,6.56,0,0,0,1.65-3,2.1,2.1,0,0,0,1-.55A1.84,1.84,0,0,0,24,25.11v-.55a1,1,0,0,0-1-1h-.37V23c.68-.56,1.54-1.25,1.66-2a3.24,3.24,0,0,0-.46-2.23,3.47,3.47,0,0,0-4.67-1.17,4.11,4.11,0,0,1-2.43.16,5.27,5.27,0,0,0-2.86.17,4.4,4.4,0,0,0-2.1,1.89,6.13,6.13,0,0,0-.32,3v.79H11a1,1,0,0,0-1,1v.55a1.85,1.85,0,0,0,.6,1.29,2.06,2.06,0,0,0,1,.55,6.75,6.75,0,0,0,1.91,3.23l-.12.12a3.05,3.05,0,0,1-1.36.86,4,4,0,0,1-1.15.19c-2.45.13-3.39,1.56-4.45,3.56l-1.85,3.5h0a2.56,2.56,0,0,0-.26,2.28,3.69,3.69,0,0,0-1.41,1.39L2,43.36a1.91,1.91,0,0,0-.35,1,.13.13,0,0,0,0,.06s0,1.17.93,1.4a2.07,2.07,0,0,0,.8.15H16.05m-4.8-20.18a.92.92,0,0,1-.32-.62v-.55a.1.1,0,0,1,.1-.09h.37v1.39Zm18,14.68c-.3.49-1.27,1.07-4.25,1.07l.27-2.65A5.46,5.46,0,0,1,29.1,39,1.5,1.5,0,0,1,29.24,40.41ZM23,24.47a.09.09,0,0,1,.09.09v.55a.9.9,0,0,1-.31.62l-.15.13V24.47Zm-8.76-5.73a4.41,4.41,0,0,1,2.38-.11,4.85,4.85,0,0,0,3-.26,2.52,2.52,0,0,1,3.44.84,2.26,2.26,0,0,1-.67,3.13c-3.82,1.44-5.17.68-6.27.26A6.83,6.83,0,0,0,13.39,22a6.85,6.85,0,0,0-1.41.15A3.83,3.83,0,0,1,14.19,18.74Zm-1.78,7.73a.43.43,0,0,0,0,0,3.11,3.11,0,0,1-.07-.67l-.19-2.64a5,5,0,0,1,3.58.36,7.45,7.45,0,0,0,2.87.62,8.74,8.74,0,0,0,3.06-.68v2.34a2.94,2.94,0,0,1-.07.65.19.19,0,0,0,0,.08,5.81,5.81,0,0,1-3.33,4.18,3.09,3.09,0,0,1-2.44,0A5.89,5.89,0,0,1,12.41,26.47Zm1.48,4.44.14-.15a6.38,6.38,0,0,0,1.45.78,4.49,4.49,0,0,0,1.54.31,4.38,4.38,0,0,0,1.55-.32,6.51,6.51,0,0,0,1.66-.93l.3.31a4,4,0,0,0,1,.87,5.88,5.88,0,0,1-4.16,1.54,5.76,5.76,0,0,1-4.51-1.53A3.84,3.84,0,0,0,13.89,30.91Zm4.5,4.69h6a.25.25,0,0,1,.18.08.12.12,0,0,1,0,.09l-.7,6.91c0,.13-.09.26-.22.26h-13c-.14,0-.21-.15-.22-.26l-.43-4.25v0l-.27-2.61a.12.12,0,0,1,0-.09A.23.23,0,0,1,10,35.6h6.24m0-.93H10a1.16,1.16,0,0,0-.87.39,1,1,0,0,0-.27.8l.2,2A7.38,7.38,0,0,0,6,37.75l1.27-2.4c1.07-2,1.78-3,3.68-3.07A5.67,5.67,0,0,0,12,32.14a6.33,6.33,0,0,0,5.17,2.12h.28a6.42,6.42,0,0,0,5-2.11,6,6,0,0,0,1.07.14c1.9.1,2.61,1.06,3.68,3.07l1.27,2.4a7.38,7.38,0,0,0-3.1.11l.2-2a1,1,0,0,0-.27-.8,1.16,1.16,0,0,0-.87-.39h-6M5.32,39a5.46,5.46,0,0,1,3.84-.14l.27,2.65c-2.42,0-3.51-.38-4-.79l0,0a1.46,1.46,0,0,1-.21-.25A1.5,1.5,0,0,1,5.32,39Zm10.73,6H3.36a.79.79,0,0,1-.75-.34.59.59,0,0,1,0-.19v-.08a1,1,0,0,1,.19-.48l.89-1.28c.34-.48.76-1.08,1.23-1.13h.07c.84.62,2.33.92,4.5.92h.08l0,.37a1.16,1.16,0,0,0,1.14,1.09h13a1.16,1.16,0,0,0,1.14-1.09l0-.37H25c2.17,0,3.66-.3,4.5-.92h.28c.47,0,.9.65,1.24,1.13l.89,1.28a.75.75,0,0,1,.14.75.78.78,0,0,1-.75.34H18.2"/><path class="cls-1" d="M48.54,13.31c-.7-.08-5.71.62-7.9-4a10.75,10.75,0,0,1-.92-4.89.49.49,0,0,0-.52-.37.47.47,0,0,0-.42.46v1c-.17,3.43-1.73,6.35-5,7.38a12.56,12.56,0,0,1-3.84.41.48.48,0,0,0,0,.93c.43.09,3.66-.44,6.16,1.64l1.15,1.25a6.78,6.78,0,0,1,.63,1.08,10.79,10.79,0,0,1,.91,4.83.48.48,0,1,0,.95-.11c-.06-1.27,0-5.59,3.53-7.64a10.25,10.25,0,0,1,5.32-1.06A.47.47,0,0,0,48.54,13.31Zm-9.29,6.56a9.09,9.09,0,0,0-1.38-3.17,9.51,9.51,0,0,0-1.29-1.4,7.77,7.77,0,0,0-3.07-1.52,7.66,7.66,0,0,0,5.74-6.1A7.67,7.67,0,0,0,45,13.78,7.66,7.66,0,0,0,39.25,19.87Z"/><path class="cls-2" d="M39.26,23.53a.51.51,0,0,1-.53-.48v-.16a10.39,10.39,0,0,0-.9-4.65,8.6,8.6,0,0,0-.63-1.07l-1.14-1.24A8.36,8.36,0,0,0,30.4,14.3a2.17,2.17,0,0,1-.48,0,.52.52,0,0,1,0-1,2.3,2.3,0,0,1,.49,0,10.26,10.26,0,0,0,3.35-.4c3-.93,4.79-3.6,5-7.33v-1A.53.53,0,0,1,39.2,4a.52.52,0,0,1,.57.4,3.05,3.05,0,0,1,0,.37,9.88,9.88,0,0,0,.9,4.51c1.91,4,5.92,3.95,7.43,3.93h.43a.5.5,0,0,1,.46.49.52.52,0,0,1-.41.54,2,2,0,0,1-.46,0,9.11,9.11,0,0,0-4.85,1c-3.46,2-3.56,6.33-3.51,7.6a.51.51,0,0,1-.48.59ZM30.88,14.2a8,8,0,0,1,5.24,1.66l1.16,1.25a7.79,7.79,0,0,1,.64,1.09,10.57,10.57,0,0,1,.91,4.69v.16a.42.42,0,0,0,.45.38.43.43,0,0,0,.4-.48c-.06-1.29,0-5.63,3.55-7.69a9.18,9.18,0,0,1,4.9-1.06,3,3,0,0,0,.44,0,.41.41,0,0,0,.33-.44.41.41,0,0,0-.37-.4h-.42c-1.38,0-5.58.08-7.52-4a10,10,0,0,1-.91-4.55,2.75,2.75,0,0,0,0-.35.43.43,0,0,0-.46-.33.43.43,0,0,0-.38.41v1a9.51,9.51,0,0,1-1.35,4.62A6.62,6.62,0,0,1,33.78,13a10.45,10.45,0,0,1-3.38.4h-.46a.42.42,0,0,0-.34.42.43.43,0,0,0,.34.42,3.29,3.29,0,0,0,.46,0Zm8.37,5.88,0-.2a8.92,8.92,0,0,0-1.37-3.15,9.86,9.86,0,0,0-1.27-1.39,7.65,7.65,0,0,0-3.06-1.51l-.19-.05.19,0a7.6,7.6,0,0,0,5.71-6.06l0-.21,0,.21A7.58,7.58,0,0,0,45,13.73l.19,0-.19.05a7.56,7.56,0,0,0-5.72,6Zm-5.54-6.3a7.79,7.79,0,0,1,2.91,1.48,9.8,9.8,0,0,1,1.29,1.41,9.07,9.07,0,0,1,1.34,3,7.62,7.62,0,0,1,5.56-5.88,7.65,7.65,0,0,1-5.56-5.89A7.64,7.64,0,0,1,33.71,13.78Z"/><path class="cls-1" d="M30.38,10.31c-.35,0-2.9.32-4-2a5.49,5.49,0,0,1-.47-2.49.24.24,0,0,0-.26-.18.23.23,0,0,0-.21.23v.5a3.82,3.82,0,0,1-2.55,3.75,6.75,6.75,0,0,1-1.95.21.24.24,0,0,0,0,.47,4.7,4.7,0,0,1,3.13.84l.58.63a3.76,3.76,0,0,1,.32.55,5.44,5.44,0,0,1,.47,2.45.24.24,0,1,0,.48,0,4.28,4.28,0,0,1,1.79-3.88,5.14,5.14,0,0,1,2.71-.54A.24.24,0,0,0,30.38,10.31Zm-4.72,3.34A4.59,4.59,0,0,0,25,12a4.87,4.87,0,0,0-.65-.7,3.83,3.83,0,0,0-1.56-.78,3.88,3.88,0,0,0,2.92-3.1,3.85,3.85,0,0,0,2.92,3.1A3.91,3.91,0,0,0,25.66,13.65Z"/><path class="cls-2" d="M25.67,15.68a.44.44,0,0,1-.44-.4v-.1a5.1,5.1,0,0,0-.44-2.28,3.72,3.72,0,0,0-.3-.52l-.57-.61A4.11,4.11,0,0,0,21.17,11a1.1,1.1,0,0,1-.28,0,.43.43,0,0,1-.35-.43.44.44,0,0,1,.34-.43h.29a5.11,5.11,0,0,0,1.65-.2,3.65,3.65,0,0,0,2.41-3.56v-.5a.44.44,0,0,1,.39-.43.43.43,0,0,1,.47.34.48.48,0,0,1,0,.22,4.9,4.9,0,0,0,.45,2.22,3.59,3.59,0,0,0,3.61,1.9h.25a.42.42,0,0,1,.38.41.43.43,0,0,1-.34.45h-.28a4.43,4.43,0,0,0-2.37.51c-1.68,1-1.72,3.08-1.7,3.7a.43.43,0,0,1-.41.48Zm-.15-1.79a6,6,0,0,1,.1,1.29v.07a0,0,0,0,0,.05,0s0,0,0-.06a5.81,5.81,0,0,1,.1-1.31l-.14.6Zm-1.09-2.72a5.12,5.12,0,0,1,.69.75,4.45,4.45,0,0,1,.54,1A4,4,0,0,1,28,10.55a3.92,3.92,0,0,1-2.28-2.41,4,4,0,0,1-2.28,2.41A4.34,4.34,0,0,1,24.43,11.17Zm-.22.33.55.59A4,4,0,0,0,24.21,11.5Zm4.51-1.12.69.17-.58.15a5.51,5.51,0,0,1,1.35-.1h.19s0,0,0,0,0,0,0,0h-.19A6.17,6.17,0,0,1,28.72,10.38Zm-7.3.21a6.05,6.05,0,0,1,1,.09l-.51-.13.56-.14a5.41,5.41,0,0,1-1.34.1H21s0,0,0,0,0,0,0,0h.45ZM24.79,9a3.31,3.31,0,0,1-.77.77A3.31,3.31,0,0,0,24.79,9Zm.88-3.16h0s-.05,0-.05,0v.51a4.9,4.9,0,0,1-.09.78l.14-.56.12.52A5.73,5.73,0,0,1,25.71,6V5.85A.05.05,0,0,0,25.67,5.82Z"/><path class="cls-1" d="M36.8,20.83a3.11,3.11,0,0,1-3.14-1.58,4.33,4.33,0,0,1-.36-1.94.2.2,0,0,0-.21-.14.18.18,0,0,0-.16.18v.39a3,3,0,0,1-2,2.93,5,5,0,0,1-1.53.16.19.19,0,0,0,0,.37,3.71,3.71,0,0,1,2.45.65l.45.5a3.07,3.07,0,0,1,.26.43,4.31,4.31,0,0,1,.36,1.91.19.19,0,1,0,.37,0,3.35,3.35,0,0,1,1.4-3,4.06,4.06,0,0,1,2.12-.42A.19.19,0,0,0,36.8,20.83Zm-3.69,2.6a3.46,3.46,0,0,0-.55-1.26,3.11,3.11,0,0,0-.51-.55,3,3,0,0,0-1.21-.6,3,3,0,0,0,2.27-2.43A3,3,0,0,0,35.4,21,3,3,0,0,0,33.11,23.43Z"/><path class="cls-2" d="M33.11,25.06a.37.37,0,0,1-.38-.35v-.08a4,4,0,0,0-.34-1.77,3.64,3.64,0,0,0-.23-.39L31.72,22a3.11,3.11,0,0,0-2.11-.6h-.24a.38.38,0,0,1,0-.75h.24a3.63,3.63,0,0,0,1.27-.15,2.81,2.81,0,0,0,1.85-2.74v-.39a.39.39,0,0,1,.34-.38.39.39,0,0,1,.42.3.87.87,0,0,1,0,.19,3.83,3.83,0,0,0,.34,1.71,2.76,2.76,0,0,0,2.78,1.46h.2a.39.39,0,0,1,0,.76h-.23a3.42,3.42,0,0,0-1.83.39,3.15,3.15,0,0,0-1.3,2.85.38.38,0,0,1-.36.42Zm0-.38Zm-.93-3.22a3.32,3.32,0,0,1,.55.59,3.13,3.13,0,0,1,.39.72A3.12,3.12,0,0,1,34.78,21a3.13,3.13,0,0,1-1.67-1.77A3.11,3.11,0,0,1,31.45,21,2.78,2.78,0,0,1,32.17,21.46ZM36.78,21h0v0h0Zm0-.19,0,.17h0Z"/></svg>