<svg id="레이어_1" data-name="레이어 1" xmlns="http://www.w3.org/2000/svg" viewBox="0 0 45 45"><defs><style>.cls-1{fill:none;}.cls-1,.cls-3{stroke:#231815;stroke-miterlimit:10;}.cls-2{fill:#0f7cb2;}.cls-3{fill:#fff;}</style></defs><title>pencil_off</title><polygon class="cls-1" points="34.93 3 6.53 31.48 4.1 41.54 13.68 39.35 42.4 10.79 34.93 3"/><line class="cls-1" x1="40.12" y1="13.05" x2="32.6" y2="5.34"/><line class="cls-1" x1="6.53" y1="31.48" x2="13.67" y2="39.35"/><path class="cls-2" d="M25.12,34.93S26.33,44.3,39,41.54c0,0,3.17-12.54-7.06-13.67Z"/><path class="cls-3" d="M31.93,27.87,7.51,6S5,4,2.72,6a3.22,3.22,0,0,0,0,3.89c1.54,1.87,22.4,25.08,22.4,25.08Z"/><path class="cls-1" d="M25.12,34.93S26.33,44.3,39,41.54c0,0,3.17-12.54-7.06-13.67Z"/><line class="cls-3" x1="25.91" y1="22.46" x2="19.51" y2="28.68"/></svg>