<svg id="레이어_1" data-name="레이어 1" xmlns="http://www.w3.org/2000/svg" viewBox="0 0 45 45"><defs><style>.cls-1{fill:none;}.cls-1,.cls-2{stroke:#fff;stroke-miterlimit:10;}.cls-2{fill:#fff;}</style></defs><title>pencil_on</title><polyline class="cls-1" points="28.5 24.5 42.4 10.79 34.93 3 20.43 17.55"/><polyline class="cls-1" points="14.69 23.3 6.53 31.48 4.1 41.54 13.68 39.35 21.5 31.5"/><line class="cls-1" x1="40.12" y1="13.05" x2="32.6" y2="5.34"/><line class="cls-1" x1="6.53" y1="31.48" x2="13.67" y2="39.35"/><path class="cls-1" d="M20.43,17.55,7.51,6S5,4,2.72,6a3.22,3.22,0,0,0,0,3.89c.78,1,6.5,7.35,12,13.45"/><line class="cls-1" x1="28.41" y1="24.7" x2="20.43" y2="17.55"/><path class="cls-1" d="M21.82,31.26l3.3,3.67,6.81-7.06L28.41,24.7"/><path class="cls-1" d="M14.69,23.3l7.13,8"/><path class="cls-1" d="M25.12,34.93S26.33,44.3,39,41.54c0,0,3.17-12.54-7.06-13.67Z"/><line class="cls-2" x1="25.91" y1="22.46" x2="19.51" y2="28.68"/></svg>