<svg id="레이어_1" data-name="레이어 1" xmlns="http://www.w3.org/2000/svg" viewBox="0 0 45 45"><defs><style>.cls-1{fill:#0f7cb2;}.cls-2{fill:none;stroke:#000;stroke-miterlimit:10;}</style></defs><title>megaphone_off</title><path class="cls-1" d="M16,10l-10.5.5v16S9,25,16,26Z"/><path class="cls-1" d="M40.33,12.65S43,12,44,18c0,0-.64,5.22-3.32,6.11"/><path class="cls-2" d="M5.66,10.34A71,71,0,0,0,40.33,3V34.45S21,23.19,5.66,26.39Z"/><line class="cls-2" x1="15.9" y1="25.97" x2="15.9" y2="10.11"/><polyline class="cls-2" points="5.66 13.06 2.45 13.06 2.45 22.76 5.66 22.76"/><polyline class="cls-2" points="14.84 26.09 21.79 42.8 14.35 42.8 7.37 26.09"/><path class="cls-2" d="M40.33,12.15a6,6,0,0,1,3.75,5.76,7.43,7.43,0,0,1-3.75,6.41"/></svg>