<svg id="레이어_1" data-name="레이어 1" xmlns="http://www.w3.org/2000/svg" viewBox="0 0 45 45"><defs><style>.cls-1,.cls-3{fill:none;}.cls-1,.cls-2{stroke:#000;}.cls-1,.cls-2,.cls-3{stroke-miterlimit:10;}.cls-2{fill:#0f7cb2;}.cls-3{stroke:#fff;}</style></defs><title>translate_off</title><polygon class="cls-1" points="24.2 2 2.47 2 2.47 24.5 24.2 24.5 24.2 13.25 30.37 8.34 24.2 4.64 24.2 2"/><polygon class="cls-2" points="20.7 19.93 42.43 19.93 42.43 42.43 20.7 42.43 20.7 31.18 14.53 26.27 20.7 22.58 20.7 19.93"/><line class="cls-1" x1="13.77" y1="8.34" x2="13.77" y2="11.08"/><line class="cls-1" x1="9.18" y1="11.25" x2="18.37" y2="11.25"/><path class="cls-1" d="M11.19,11.25s.75,6.33,7.23,6.46"/><path class="cls-1" d="M16.17,11.25a7.26,7.26,0,0,1-7,6.74"/><polyline class="cls-3" points="28.48 36.17 31.56 26.97 34.65 36.17"/><line class="cls-3" x1="29.54" y1="33.02" x2="33.59" y2="33.02"/></svg>